<svg width="100" height="100" viewBox="0 0 100 100" fill="none" xmlns="http://www.w3.org/2000/svg">
<rect width="100" height="100" rx="50" fill="black"/>
<path d="M44.216 47.903C44.216 47.903 49.892 47.462 49.892 40.526C49.892 33.581 45.248 30.203 39.362 30.203H20V68.981H39.362C39.362 68.981 51.185 69.368 51.185 57.533C51.182 57.53 51.698 47.903 44.216 47.903V47.903ZM28.532 37.091H39.362C39.362 37.091 41.996 37.091 41.996 41.123C41.996 45.161 40.448 45.746 38.69 45.746H28.532V37.091ZM38.813 62.087H28.532V51.722H39.362C39.362 51.722 43.286 51.668 43.286 57.047C43.286 61.583 40.355 62.054 38.813 62.087V62.087ZM66.947 40.064C52.634 40.064 52.646 54.965 52.646 54.965C52.646 54.965 51.668 69.788 66.947 69.788C66.947 69.788 79.676 70.55 79.676 59.477H73.13C73.13 59.477 73.346 63.65 67.166 63.65C67.166 63.65 60.614 64.106 60.614 56.9H79.883C79.886 56.897 82.01 40.064 66.947 40.064V40.064ZM72.77 51.722H60.548C60.548 51.722 61.346 45.746 67.094 45.746C72.842 45.746 72.77 51.722 72.77 51.722V51.722ZM74.291 32.48H58.94V37.262H74.291V32.48Z" fill="white"/>
</svg>
