<svg width="48" height="48" viewBox="0 0 48 48" fill="none" xmlns="http://www.w3.org/2000/svg">
<g clip-path="url(#clip0_7_337)">
<rect width="48" height="48" rx="24" fill="#0C0C0C"/>
<path d="M23.3909 0.112767C36.6085 -0.250737 47.6203 10.1427 47.9904 23.3308C48.3608 36.5189 37.949 47.5111 24.7319 47.8862C11.5064 48.2616 0.481539 37.8652 0.111136 24.6686C-0.259268 11.4724 10.1651 0.476511 23.3909 0.112767ZM10.7672 15.6778C10.7176 16.3477 10.7507 17.432 10.7508 18.1292L10.7513 22.7697L10.7513 29.0409C10.7513 30.066 10.7186 31.2984 10.7585 32.304C11.3162 32.3839 11.8266 32.3648 12.3873 32.3645L14.3594 32.3627C15.7106 32.3738 17.0619 32.3643 18.4127 32.3335C19.9065 32.2987 21.4148 32.3457 22.6746 31.4048C23.1668 31.0339 23.5793 30.5683 23.8877 30.0354C25.2045 27.6264 24.6662 24.8261 22.076 23.703C21.9428 23.6454 21.7561 23.5703 21.6464 23.4861C21.6413 23.4354 21.6327 23.4344 21.6649 23.4083C21.9283 23.1961 22.2028 23.0274 22.461 22.7988C23.3741 21.978 23.8544 20.7813 23.7613 19.5584C23.6783 18.4796 23.1698 17.4777 22.3475 16.7722C21.8435 16.3349 21.2393 16.028 20.5883 15.8786C19.9659 15.7314 19.2598 15.682 18.62 15.6633C16.5276 15.602 14.4291 15.6531 12.3355 15.6364C12.0014 15.6337 11.6639 15.6334 11.3305 15.6481C11.1482 15.659 10.9481 15.675 10.7672 15.6778ZM36.7519 28.2264C35.8917 28.2171 34.693 28.2413 33.8503 28.1956C33.6888 28.5094 33.5499 28.9177 33.2631 29.1384C31.8872 30.1958 29.5564 29.6696 29.0615 27.8927C29.0032 27.684 28.8745 27.1095 28.9617 26.9194C29.1163 26.8307 31.1114 26.8653 31.4014 26.8653L35.6543 26.8674C36.0218 26.8674 37.0283 26.8883 37.3285 26.8459C37.4527 25.8726 37.2574 23.8552 36.8791 22.9774C35.7735 20.4124 33.448 19.3401 30.778 19.5283C29.3414 19.5772 28.0294 20.2274 27.0545 21.2779C25.7994 22.6302 25.4251 24.5332 25.4751 26.3223C25.5227 28.0278 26.0655 29.7649 27.3568 30.9402C28.6584 32.1248 30.4276 32.4176 32.1304 32.3353C33.5944 32.2645 34.962 31.7882 35.9566 30.6795C36.5582 30.0086 37.0981 29.1699 37.1372 28.2453L36.7519 28.2264ZM34.3439 17.9254C34.713 17.7792 34.7031 17.6205 34.7297 17.2613C34.8202 16.0458 34.4559 16.1408 33.4156 16.159C31.7699 16.1878 30.0859 16.1188 28.4354 16.173C28.0198 16.38 28.0957 16.6595 28.0845 17.0679C28.0754 17.3917 28.0589 17.8397 28.4535 17.9005C28.8955 17.9686 29.3313 17.9477 29.7749 17.9477L31.7255 17.9469L33.348 17.9461C33.6412 17.9462 34.0648 17.9576 34.3439 17.9254Z" fill="white"/>
<path d="M14.8275 25.0746C16.093 25.0723 17.3292 25.06 18.5875 25.128C20.159 25.2127 21.2618 25.9056 21.1179 27.6172C21.0664 28.2297 20.8704 28.6184 20.3979 29.0126C20.1144 29.2215 19.7777 29.3872 19.4282 29.4438C18.6925 29.5627 17.8848 29.5462 17.1405 29.5489C16.2922 29.5518 15.4389 29.5614 14.5939 29.5369C14.5707 28.6263 14.6004 27.6716 14.5872 26.7557C14.5831 26.4738 14.5706 25.3292 14.6171 25.1264C14.7051 25.0646 14.7014 25.0847 14.8275 25.0746Z" fill="white"/>
<path d="M14.634 18.4314C15.8005 18.4129 17.0111 18.4323 18.1786 18.447C18.8042 18.4676 19.6423 18.533 20.0768 19.0591C20.7464 19.87 20.6546 21.0747 19.8884 21.7686C19.1165 22.3838 17.9525 22.2921 17.0094 22.2962L14.5965 22.2938C14.573 21.9783 14.5688 21.1852 14.5811 20.8657C14.5957 20.4883 14.5284 18.6062 14.634 18.4314Z" fill="white"/>
<path d="M31.2801 21.9931C31.9508 21.9654 32.4697 22.0821 33.013 22.5001C33.547 22.9108 33.9273 23.5486 33.9999 24.2211C34.0113 24.328 34.023 24.4292 33.9528 24.5149C33.766 24.593 32.0551 24.5588 31.7295 24.558C30.9445 24.5593 29.723 24.5954 28.9785 24.5309C29.0307 23.1321 29.8771 22.1543 31.2801 21.9931Z" fill="white"/>
</g>
<defs>
<clipPath id="clip0_7_337">
<rect width="48" height="48" rx="24" fill="white"/>
</clipPath>
</defs>
</svg>
