<svg width="48" height="48" viewBox="0 0 48 48" fill="none" xmlns="http://www.w3.org/2000/svg">
<circle cx="24" cy="24" r="24" fill="white"/>
<path d="M37.993 37.9996V37.9984H38V27.7294C38 22.7058 36.9185 18.8359 31.0455 18.8359C28.2221 18.8359 26.3275 20.3853 25.554 21.8541H25.4723V19.3049H19.9038V37.9984H25.7021V28.7421C25.7021 26.3049 26.1641 23.9483 29.1823 23.9483C32.1561 23.9483 32.2005 26.7296 32.2005 28.8984V37.9996H37.993Z" fill="#0C0C0C"/>
<path d="M10.4619 19.3066H16.2672V38.0001H10.4619V19.3066Z" fill="#0C0C0C"/>
<path d="M13.3623 10C11.5062 10 10 11.5062 10 13.3623C10 15.2185 11.5062 16.7562 13.3623 16.7562C15.2185 16.7562 16.7247 15.2185 16.7247 13.3623C16.7235 11.5062 15.2173 10 13.3623 10V10Z" fill="#0C0C0C"/>
</svg>
